<?xml version="1.0" encoding="utf-8"?>
<!-- Generator: Adobe Illustrator 25.1.0, SVG Export Plug-In . SVG Version: 6.00 Build 0)  -->
<svg version="1.1" id="afdd4ab7-adff-4ff2-b7e4-c8adc1cbcb81"
	 xmlns="http://www.w3.org/2000/svg" xmlns:xlink="http://www.w3.org/1999/xlink" x="0px" y="0px" viewBox="0 0 139.1 31.2"
	 style="enable-background:new 0 0 139.1 31.2;" xml:space="preserve">
<style type="text/css">
	.st0{fill:#172a88;}
</style>
<path class="st0" d="M25.9,23.3V23c-0.5-0.5-1.2-0.7-1.8-0.6l-2,0.4v-3.1l3.5-0.7c-0.2-0.4-0.7-0.7-1.1-0.6l-2.7,0.4l-3.7,0.6v0.3
	c0.8,0.3,1.6,0.3,2.4,0.1c0.6-0.1,0.8,0.1,1,0.7V23l-3.8,0.6c0.2,0.6,0.3,1.3,0.3,2c-0.1,1.1-0.4,2.3-0.7,3.5
	c-0.1,0.6,0.1,1.1,0.4,1.5c0.6-2.2,0.9-4.5,0.8-6.8l3.1-0.4l-0.4,5.2c-0.2,0.5,0,1.2,0.6,1.4c0-0.3,0.1-0.4,0.1-0.6
	c0-0.1,0-3.1,0.1-4.6c0.1-1.5-0.3-1.4,1.7-1.8s1.1,0.1,1.1,1c0,0.8,0.3,3.4,0.4,5.1s-0.3,0.6-0.7,0.6h-0.6l1.1,1.4
	c0.3,0.3,0.6,0.3,0.7-0.1c0.3-0.6,0.4-1.3,0.4-2c0-1-0.3-1.8-0.3-2.8L25.9,23.3z"/>
<path class="st0" d="M86.2,29l-3.4,0.3v-0.7c-0.1-0.6,0.2-0.8,0.8-0.8l1.7-0.3c-0.7-1-1.7-0.3-2.4-0.4c0-0.5,0-0.9-0.1-1.4h0.6
	c0.6-0.1,1.3-0.3,1.5,0.4h0.4c0.1-0.3,0.3-0.4,0.3-0.7s-1.3-1.5-2-1.5c-0.7,0,0.4,0.7,0.6,1.1l-2.8,0.3l0,0l1-1.1
	c0.4-0.3,0.6-0.6,0.1-1l2-0.4l0.7-0.3L84.5,22l-4.2,0.7l0,0l1.7,0.4l-0.8,1.3c-0.3,0.4-0.8,0.6-1.1,0.8c-0.3,0.3-0.1,0.6-0.3,0.8
	h0.7l1.5-0.4c0,0.5,0,0.9,0.1,1.4l-2.7,0.4c0.3,0.6,0.7,0.6,1.3,0.6l1.3-0.3v1.5l-4.6,0.4c0.4,0.5,1.1,0.8,1.7,0.6
	c2.9-0.4,5.8-0.5,8.7-0.4h0.7C87.9,29.2,87,28.8,86.2,29z"/>
<path class="st0" d="M86.4,19.9l-3,0.4l-4.2,0.4l-0.4-1.1c-0.4,0.9-0.8,1.7-1.3,2.5c0,0.1-0.1,0.1,0,0.3c0.1,0.1,0.1,0.4,0.1,0.6
	c0,0.1,0.6-0.1,0.6-0.3c0-0.1,0.4-0.8,0.7-1.1c0.3-0.3,0.3-0.4,0.4-0.4l4.8-0.4H86c0.8,0,0.9,0.3,0.4,0.8c-0.1,0.3-0.2,0.5-0.4,0.7
	l2.7-0.8C88.5,20.4,87.5,19.7,86.4,19.9z"/>
<path class="st0" d="M4.2,19l-1.1,0.7L2.4,20h1v1l-2.7,0.4c0.7,0.8,1.4,0.1,2.3,0.3l-2.4,2.8c1.3-0.3,2-1.3,2.8-2.4
	c0.8-1.1-0.1,1-0.1,1.4c-0.2,0.4,0,0.9,0.4,1.1c0,0,0,0,0,0c0.1-0.7,0.1-1.4,0.3-2l1.1,0.4c0.1-0.8,0-0.8-1.1-1
	c-1.1-0.1,1-0.6,1.4-1.1c0.4-0.6-1,0-1.3-0.1c-0.3-0.1-0.1-0.7-0.3-1.1l1.7-0.4C5.1,18.6,4.9,18.6,4.2,19z"/>
<path class="st0" d="M70.1,19.8c-0.1-0.1-0.3-0.3-0.3-0.4s-0.4-0.8-0.8-1.3c0,2.7-1.3,4.5-2.5,6.5c1.5-1.2,2.6-2.9,3.1-4.8
	c0.8,1.1,1.5,2.3,2.4,3.2c0.7,0.7,1.8,0.8,2.7,0.3C72.8,22.6,71.2,21.3,70.1,19.8z"/>
<path class="st0" d="M10.6,25l-0.7-0.4c0,1.1-0.4,2.2-1.1,3.1c-0.1,0,0,0.4,0.1,0.6h0.4c0.1-0.2,0.3-0.3,0.6-0.3
	c0.4-0.1,1-0.7,1.5-0.1c0.6,0.6,0.6-0.1,0.6-0.4c0-0.3-0.6-0.8-1.3-0.8v0.7l-1.3,0.3H9.3l1.1-1.7C10.9,25.4,10.9,25.2,10.6,25z"/>
<path class="st0" d="M19.3,21.4v-0.3l-1-0.6c-0.1,1-0.6,1.5-2.1,3.1C17.4,23.3,18.5,22.5,19.3,21.4z"/>
<path class="st0" d="M52.7,28.9l2.1,2.1h0.4c0.1-0.2,0.2-0.4,0.1-0.6C55.2,29.6,54.1,28.9,52.7,28.9z"/>
<path class="st0" d="M27,20.6c-0.9-0.3-1.9-0.3-2.8-0.1v0.3l3,1c0.1,0,0.4-0.4,0.4-0.4C27.5,21,27.3,20.8,27,20.6z"/>
<path class="st0" d="M19.7,27.2l-1-0.4h-0.1l0.7,0.8l-0.8,1.1h0.1l1-0.7l0.7,0.6c0.1-0.7-0.4-1.5,0.6-2L20,26.1L19.7,27.2z"/>
<path class="st0" d="M50.4,29l-2,2.1c1.2-0.4,2.3-1.1,3.2-2C51,28.3,50.8,28.5,50.4,29z"/>
<path class="st0" d="M20.4,25c0.3-0.4,0.3-0.6-0.4-0.8L19.7,25l-0.8-0.3l0.6,0.8l-0.6,1l0.8-0.6h0.6v-0.7C20.3,25.1,20.4,25,20.4,25
	z"/>
<path class="st0" d="M81.6,18.3l1.3,1.4c0,0.2,0.2,0.2,0.4,0.2c0.2,0,0.2-0.2,0.2-0.4l0,0c0-0.4,0-0.8-0.3-1l-1.3-0.6L81.6,18.3z"/>
<path class="st0" d="M52.4,18.9c0-0.3,0-0.7-0.3-0.8l-1.3-0.4c0,0.1,0,0.3-0.1,0.3l1,1L52.4,18.9z"/>
<path class="st0" d="M71,22.6c-0.4-0.4-0.8-0.3-2.5,0.6C69.3,23.4,70.2,23.2,71,22.6z"/>
<path class="st0" d="M60.8,27.6c0,0.3,0.1,0.6,0.1,0.8l0.6-0.6c0.3-0.5,0.2-1.2-0.1-1.7C61.2,26.7,61,27.2,60.8,27.6z"/>
<path class="st0" d="M63.9,25.9l0.7,1.5C65.2,26.6,65,26.2,63.9,25.9z"/>
<path class="st0" d="M61.9,26.2l0.4,1.7C63.1,27.4,63,26.8,61.9,26.2z"/>
<path class="st0" d="M62.9,26.1c0.1,0.4,0.1,0.8,0.3,1.1s0.3,0.3,0.4,0.3c0.1,0,0.1-0.1,0.1-0.3S63.5,26.4,62.9,26.1z"/>
<path class="st0" d="M12.8,28.6c-0.3,0.4-0.6,0.8-1,0.8H9.4c-0.6-0.1-1.1-0.6-1.1-1.3c0.1-0.8,0.2-1.5,0.4-2.3
	c0.1-0.6,0.3-1.1-0.3-1.5c0.4-0.2,0.8-0.2,1.3-0.1c0.6,0.3,0.7-0.1,0.8-0.4c0.3-0.9,0.8-1.7,1.4-2.4V21c-0.5-0.4-1.2-0.6-1.8-0.4
	l-2.7,0.7H7.3l2.5-2.1l-0.4-0.3c-0.7-0.4-0.8-0.3-1.3,0.4c-0.4,0.7-0.8,2.3-2.3,2.3s0.7,2.3,1,3.2h1l-2.4,3.5
	c1.2-0.7,2.1-1.8,2.7-3.1v0.7C8,27,7.9,28,7.9,29C7.7,29.5,8,30,8.4,30.1c0.1,0,0.1,0,0.2,0c1.4,0.6,3,0.6,4.4,0
	c0.2-0.1,0.4-0.3,0.4-0.6c0-0.6-0.1-1.1-0.3-1.7C13,28.2,13,28.5,12.8,28.6z M9.9,22.6v-0.3H9v-0.8h1.7c0,0.5-0.1,1-0.3,1.4
	c-0.3,1.3-0.3,1.3-1.5,1.3S9.3,22.8,9.9,22.6z M7.3,23H8c0.1,1,0.1,1-0.8,1.3l-0.4-2.5l1.4-0.3C8.5,22.1,8.5,22.1,7.3,23z"/>
<path class="st0" d="M58.1,21.6c-0.4-0.1-0.8-0.1-1.3,0h-2c0-0.3,0-0.7,0.1-1l2-0.8c-0.5-0.8-1.4-1.2-2.3-1l-3.9,0.7
	c-0.8,0-1.7,0.6-2.4-0.6c0,1.1-1,1.7-0.4,2.8l0.4-0.4L49,20c2.1-0.4,4.2-0.6,6.3-0.7c-0.1,0.4-0.3,0.9-0.6,1.3l-1.3-0.3l-3.7,0.8
	c0.3,1,0.3,1-1,1.1l-3,0.3c1.3,1,2.7,0,3.9,0.1c1.3,0.1-0.1,0.6-0.1,0.8s0.1,0.6,0.6,0.4l2.5-0.4c0.3-0.1,0.6,0,1,0.1
	c0.2-0.3,0.4-0.6,0.6-1c0.1-0.4,0.3-0.6,0.7-0.6h3.7L58.1,21.6z M50.4,23.4c0-0.8,0-0.8,1.1-0.8S51.4,23.6,50.4,23.4z M50.5,22.1
	c0-0.8,0.1-0.8,1.1-0.8C52.7,21.3,51.8,22.1,50.5,22.1L50.5,22.1z M53.5,23.1h-1.3c0-0.8,0-0.8,1.4-0.8L53.5,23.1z M53.5,21.9h-1
	v-0.7h0.8l0.4,0.3C53.6,21.6,53.6,21.9,53.5,21.9L53.5,21.9z"/>
<path class="st0" d="M66.3,24.8c-0.4-0.2-0.8-0.3-1.3-0.3c-0.4-1,0.6-1.1,1.1-1.4v-0.3h-1c-0.6-1,0.8-0.7,1.1-1.4h-1.1v-1.3l1.1-0.6
	h-0.7l-1.1,0.3h-2.1v4.5c0,0.4-0.1,0.8,0.1,1.1l2.1-0.4c0.8-0.1,1.1,0,1,0.8c-0.1,0.8-0.1,1.4-0.3,2.1c-0.1,0.7-0.3,1-1.4,0.8h-0.1
	l1,1.4c0.6-0.3,1-0.9,1.1-1.5c0.1-1.1,0.4-2.3,0.6-3.4C66.6,24.3,66.4,24.8,66.3,24.8z M64.3,23.7c0.3,0.8,0.3,1.1-1.1,1.1v-4.5h1.1
	c0.4,1,0.3,1.1-0.8,1.7l1,0.3c0.4,1-0.4,1-1,1.3L64.3,23.7z"/>
<path class="st0" d="M54.2,28.8c0.2-0.4,0.3-0.8,0.3-1.3c-0.1-0.7-0.1-1.4,0-2.1c0.1-0.7-0.4-1.3-1.3-1.1L50,24.8
	c-0.1,0.9-0.2,1.9-0.1,2.8v1.1c0.6-0.5,1.5-0.7,2.3-0.6C52.8,28.2,53.6,27.9,54.2,28.8z M50.4,27.9c0-0.2,0.1-0.5,0.1-0.7l2.3-0.3
	v-0.3c-0.7-0.4-1.5,0.1-2.3,0c-0.7-0.1,0-0.6,0.4-0.6h1.7v-0.4h-2.1v-0.6c0.1,0,0.1-0.1,0.1-0.1l0,0h2c0.4-0.1,0.8,0,0.8,0.6v2.3
	L50.4,27.9z"/>
<path class="st0" d="M4.2,27.8c0.2-0.8,0.6-1.5,1-2.3c0.3-0.7,0.1-0.8-0.7-1s-0.1,1-1.3,1s-0.1-0.8-0.6-0.8s-0.1,1-1.1,1.1h-1.7
	l0.4,0.3h1.8c0,0.3-0.1,0.7,0,1l1.3,0.7l-2.5,2c1.1-0.2,2.2-0.8,3-1.7l1.7,1.4C5.8,28.3,4.7,28.2,4.2,27.8z M4.1,26.5
	c-0.1,0.4-0.3,0.7-0.6,1l-0.8-0.4H2.5c0.1-0.3,0.2-0.6,0.4-0.8h0.7C4.1,25.9,4.2,26.2,4.1,26.5z"/>
<path class="st0" d="M72.5,28.5L71,27.8c0.4-0.3,0.5-1,0.2-1.4c0-0.1-0.1-0.1-0.2-0.2l1.3-0.3c-0.4-0.7,0.3-1.1,0.6-1.7
	c0.3-0.6-0.7-0.4-1.1-0.4l-2,0.6c0.3,0.7,0.5,1.5,0.6,2.3h0.4c-0.3,1.3-1,2.5-2,3.5c1.1-0.4,1.5-1.3,2.3-2.4l1.5,2.3l0.6,0.3
	c0-0.3,0.1-0.4,0.1-0.6C73.2,29.2,72.9,28.8,72.5,28.5z M70.5,25.8v-1.1l1.1-0.3C71.8,25.7,71.7,25.7,70.5,25.8z"/>
<path class="st0" d="M41.7,21.4h1.8c-0.1-0.7-0.6-0.7-1-0.7L41,21.2l0.7-1.1c-0.3-0.1-0.4-0.4-0.7-0.4l-2.3,0.3c0-0.4,0.3-1,0.1-1.3
	c-0.1-0.3-0.7-0.6-1.3-0.8c-0.6-0.3,0.3,1.4,0.4,2c0.1,0.6-0.1,0.6-0.4,0.6L36,20.6c0.7,0.8,1.3,0.3,2,0.3c0.7,0,0,0.8-0.7,1
	l-2.4,0.4c1.1,0.8,2.1,0,3.1,0c1,0,0.1,1-0.8,1.3l-1.7,0.3c0.8,0.8,1.7-0.1,2.5,0.1v2.3l-2.4,0.4c-0.1-0.7,0.4-0.6,0.7-0.7
	c0.3-0.1,0.4-0.6,0.6-1c0.1-0.4-0.4-0.4-0.7-0.6c-0.3-0.1,0.4,1.3-0.6,1.3s-0.3-1-1-0.8c0.6,2,0,4.2-1.5,5.6c0.9,0,1.7-0.6,2-1.4
	c0.3-0.7,0.6-0.7,1.1-0.7c0.1,0.5,0.2,0.9,0.1,1.4h0.3c0.3-0.6,0.4-1.2,0.6-1.8c-0.6-0.7-1.1,0.1-1.8,0c0.1-0.2,0.1-0.5,0.1-0.7
	l2.4-0.4c0.3,1.4-0.7,2.8,0.1,3.9h0.3c0.1-1.4,0.1-2.8,0.3-4.2l3-0.6v1.1h-2.4c0.8,0.6-0.1,1.7,0.8,2.3c1,0.6,0.1-1.1,0.1-1.8h1.3
	c0.4,1.3-0.4,2.5,0.6,3.7c0.1-0.7,0.2-1.5,0.1-2.3c0-1.5,0-3.1,0.1-4.5c0.1-1.4-0.1-1.1-1-1c0,0.3,0.1,0.7,0.3,1H40
	c0.3-0.7-0.1-0.8-0.7-0.8c0.1,0.3,0.2,0.7,0.1,1c0,0.4,0.3,0.6,0.7,0.4l1.4-0.4v0.8l-3,0.6v-1.7c-0.1-0.6,0.1-0.7,0.7-0.8l2-0.4
	c-0.8-0.3-0.6-0.8-0.4-1.1C41,21.6,41.4,21.6,41.7,21.4z M38.6,23c0-1.1,0.1-1.3,1.4-1.3C41.3,21.7,39.7,23.1,38.6,23z M38.7,21.4
	c-0.1-1.1,0.1-1.3,1.5-1.3C41.7,20.2,40.6,21.2,38.7,21.4z"/>
<path class="st0" d="M34.2,22.7c0.1-0.3,0.2-0.6,0.3-0.8c-0.3-0.1-0.8-0.6-1.1-0.4c-0.9,0.4-1.9,0.5-2.8,0.3c0.4,1.4,0.7,2.7,1,3.9
	h0.1c0.1-0.3,0.2-0.6,0.1-0.8l2.1-0.4C33.5,23.7,33.9,23.3,34.2,22.7z M33.1,23.8c-0.1,0.3-0.8,0.4-1.4,0.7c0-0.7,0-1.4-0.1-2.1
	l1.5-0.3C33.2,22.7,33.2,23.3,33.1,23.8L33.1,23.8z"/>
<path class="st0" d="M68.1,28.2c0.6-0.4,0.6-0.8,0.1-1.3H69c0.2-0.5,0.4-0.9,0.6-1.4c0-0.2,0.1-0.4,0.1-0.6
	c-0.2-0.2-0.5-0.4-0.8-0.4L67,24.8l0.4,2.1c0,0.1,0.3,0.3,0.3,0.4h0.4l-1.7,3h0.1l1.4-1.7l0.8,1C69.3,28.8,68.7,28.5,68.1,28.2z
	 M67.9,26.4v-1.1h0.8C69,26.1,68.8,26.5,67.9,26.4L67.9,26.4z"/>
<path class="st0" d="M24.4,28.1l-0.3-1l0.4-0.4L23.8,25l0.6-0.7l-0.7-0.4l-0.3,1h-0.8c1,0.7,0,1.3-0.1,1.8l0.8,0.7l-1,1h0.1l1.1-0.7
	l0.6,0.6L24.4,28.1z M23.7,26.1v0.7h-1v-0.3l1-0.3V26.1z"/>
<path class="st0" d="M3.9,12.7h0.6c0.4,0,0.6-0.3,0.7-0.6L8.4,0.6c0-0.2-0.1-0.4-0.3-0.4H7.6c-0.3,0-0.4,0-0.5,0.3l-2.9,11l-2.8-11
	C1.3,0.2,1.2,0.2,0.9,0.2H0.4C0.1,0.2,0,0.4,0.1,0.6l3.1,11.5C3.3,12.4,3.5,12.7,3.9,12.7z"/>
<path class="st0" d="M10.5,1.8h0.3c0.3,0,0.4-0.1,0.4-0.4V0.5c0-0.2-0.1-0.3-0.4-0.3h-0.3c-0.3,0-0.4,0.1-0.4,0.3v0.9
	C10.1,1.7,10.2,1.8,10.5,1.8z"/>
<path class="st0" d="M10.5,12.7h0.3c0.3,0,0.4-0.1,0.4-0.4V3.6c0-0.2-0.1-0.3-0.4-0.3h-0.3c-0.3,0-0.4,0.1-0.4,0.3v8.7
	C10.1,12.6,10.2,12.7,10.5,12.7z"/>
<path class="st0" d="M14,12.7h0.3c0.3,0,0.4-0.1,0.4-0.4V5.8c0-1.2,0.6-1.6,1.6-1.6H17c0.2,0,0.4-0.2,0.4-0.4V3.5
	c0-0.2-0.2-0.3-0.4-0.4h-0.8c-1.6,0-2.6,0.6-2.6,2.5v6.7C13.6,12.6,13.7,12.7,14,12.7z"/>
<path class="st0" d="M21.4,12.9c1.5,0.1,2.8-1.2,2.9-2.7c0,0,0-0.1,0-0.1c0-0.2-0.2-0.4-0.4-0.4h-0.4c-0.3,0-0.4,0.1-0.4,0.3
	c0.1,0.9-0.7,1.7-1.6,1.8c0,0-0.1,0-0.1,0c-1,0-1.8-0.5-1.8-2V6.2c0-1.5,0.8-2.1,1.8-2.1c0.9,0,1.7,0.8,1.7,1.7c0,0,0,0.1,0,0.1
	c0,0.3,0.1,0.4,0.4,0.4h0.4c0.2,0,0.4-0.2,0.4-0.4c0.1-1.5-1.1-2.7-2.6-2.8c-0.1,0-0.2,0-0.3,0c-1.5-0.1-2.9,1-3,2.6
	c0,0.1,0,0.3,0,0.4v3.7c-0.2,1.5,0.9,2.9,2.5,3.1C21,12.9,21.2,12.9,21.4,12.9z"/>
<path class="st0" d="M32.2,12.3V6c0-2-1.1-2.9-2.6-2.9c-0.8-0.1-1.6,0.3-2.1,1V0.4c0-0.2-0.2-0.4-0.4-0.4h-0.4
	c-0.3,0-0.4,0.1-0.4,0.4v11.9c0,0.3,0.1,0.4,0.4,0.4h0.4c0.2,0,0.4-0.2,0.4-0.4V6.2c0-1.5,0.8-2.1,1.8-2.1s1.8,0.6,1.8,2.1v6.1
	c0,0.3,0.1,0.4,0.4,0.4h0.3C32.1,12.7,32.2,12.6,32.2,12.3z"/>
<path class="st0" d="M37.2,12.9c1.5,0.1,2.9-1,3-2.6c0-0.2,0-0.4,0-0.5V6.1c0.1-1.5-1-2.9-2.6-3c-0.1,0-0.3,0-0.4,0
	c-1.5-0.1-2.8,1-2.9,2.5c0,0.2,0,0.4,0,0.5v3.7C34.3,11.9,35.5,12.9,37.2,12.9z M35.4,6.2c0-1.5,0.8-2.1,1.8-2.1S39,4.7,39,6.2v3.6
	c0,1.5-0.8,2-1.8,2s-1.8-0.5-1.8-2V6.2z"/>
<path class="st0" d="M47.1,11.4c0.4,1,1.3,1.6,2.3,1.5c1.3,0.1,2.5-0.8,2.6-2.2c0-0.2,0-0.4,0-0.5V3.6c0-0.2-0.1-0.3-0.4-0.3h-0.3
	c-0.3,0-0.4,0.1-0.4,0.3V10c0,1.3-0.7,1.8-1.6,1.8s-1.6-0.5-1.6-1.8V3.6c0-0.2-0.1-0.3-0.4-0.3h-0.4c-0.2,0-0.3,0.1-0.3,0.3V10
	c0,1.3-0.7,1.8-1.6,1.8s-1.6-0.5-1.6-1.8V3.6c0-0.2-0.1-0.3-0.4-0.3h-0.4c-0.2,0-0.4,0.1-0.4,0.3v6.6c-0.1,1.4,0.9,2.6,2.3,2.7
	c0.1,0,0.2,0,0.3,0C45.8,13,46.7,12.4,47.1,11.4z"/>
<path class="st0" d="M66.8,12.1v-0.3c0-0.3-0.1-0.4-0.4-0.4h-4.5v-11c0-0.2-0.2-0.4-0.4-0.4h-0.4c-0.2,0-0.5,0.2-0.5,0.4v11.7
	c0,0.3,0.2,0.5,0.5,0.5h5.3C66.7,12.6,66.8,12.4,66.8,12.1z"/>
<path class="st0" d="M73.8,9.7V6c0.2-1.5-0.9-2.9-2.5-3.1c-0.2,0-0.4,0-0.5,0c-1.4-0.1-2.7,1-2.8,2.4c0,0.1,0,0.2,0,0.3
	C68,5.9,68.1,6,68.4,6h0.4c0.2,0,0.4-0.1,0.4-0.3c-0.1-0.9,0.6-1.6,1.5-1.7c0,0,0.1,0,0.1,0c1,0,1.8,0.6,1.8,2.1v1h-1.8
	c-1.7,0-3,0.9-3,2.7V10c0,1.5,1.2,2.8,2.8,2.8c0.1,0,0.1,0,0.2,0c1.6,0.1,2.9-1.2,3-2.8C73.8,9.9,73.8,9.8,73.8,9.7z M72.6,9.6
	c0,1.5-0.8,2.1-1.8,2.1c-0.9,0.1-1.7-0.7-1.8-1.6c0-0.1,0-0.1,0-0.2c-0.1-0.9,0.6-1.6,1.5-1.7c0.1,0,0.2,0,0.3,0h1.8V9.6z"/>
<path class="st0" d="M81.7,5.9c0-2-1.1-3-2.6-3c-0.8,0-1.6,0.4-2.1,1.1V0.2c0-0.2-0.2-0.4-0.4-0.4h-0.4c-0.2,0-0.4,0.2-0.4,0.4v9.5
	c-0.2,1.5,0.9,2.9,2.5,3.1c0.2,0,0.4,0,0.5,0c1.7,0,2.9-1,2.9-3.1V5.9z M80.6,9.6c0,1.5-0.8,2.1-1.8,2.1S77,11.1,77,9.6V6.1
	C77,4.6,77.8,4,78.8,4s1.8,0.6,1.8,2.1V9.6z"/>
<path class="st0" d="M83.6,9.7c-0.2,1.5,0.9,2.9,2.5,3.1c0.2,0,0.4,0,0.5,0c1.7,0,2.9-1,2.9-3.1V6c0-2.1-1.2-3.1-2.9-3.1
	c-1.5-0.1-2.9,1-3,2.6c0,0.2,0,0.4,0,0.5V9.7z M84.8,6.1c0-1.5,0.8-2.1,1.8-2.1s1.8,0.6,1.8,2.1v3.5c0,1.5-0.8,2.1-1.8,2.1
	s-1.8-0.6-1.8-2.1V6.1z"/>
<path class="st0" d="M92.7,12.2V5.7c0-1.3,0.6-1.6,1.6-1.6H95c0.2,0,0.4-0.2,0.4-0.4V3.4C95.4,3.2,95.2,3,95,3h-0.8
	c-1.3-0.2-2.4,0.7-2.6,2c0,0.2,0,0.4,0,0.6v6.6c0,0.2,0.2,0.4,0.4,0.4h0.3C92.5,12.6,92.7,12.5,92.7,12.2
	C92.7,12.2,92.7,12.2,92.7,12.2z"/>
<path class="st0" d="M99.2,2.9c-1.5-0.1-2.7,1.1-2.8,2.6c0,0,0,0.1,0,0.1c0,0.2,0.2,0.4,0.4,0.4h0.4c0.3,0,0.4-0.1,0.4-0.3
	c-0.1-0.9,0.6-1.6,1.5-1.7c0,0,0.1,0,0.1,0c1,0,1.8,0.6,1.8,2.1v1h-1.8C97.7,7,96.4,8,96.3,9.4c0,0.1,0,0.3,0,0.4V10
	c-0.1,1.5,1.1,2.7,2.6,2.8c0.1,0,0.2,0,0.3,0c1.6,0.1,2.9-1.2,3-2.8c0-0.1,0-0.2,0-0.3V6c0.2-1.5-0.9-2.9-2.5-3.1
	C99.5,2.9,99.3,2.9,99.2,2.9z M101,9.6c0,1.5-0.8,2.1-1.8,2.1c-0.9,0.1-1.7-0.7-1.8-1.6c0-0.1,0-0.1,0-0.2c-0.1-0.9,0.6-1.6,1.5-1.7
	c0.1,0,0.2,0,0.3,0h1.8V9.6z"/>
<path class="st0" d="M107.5,4.2c0.3,0,0.4-0.1,0.4-0.4V3.5c0-0.3-0.1-0.4-0.4-0.4h-2.1V1.2c0-0.3-0.1-0.4-0.4-0.4h-0.3
	c-0.3,0-0.4,0.1-0.4,0.4v9c0,1.8,0.9,2.4,2.4,2.4h0.8c0.3-0.1,0.4-0.2,0.4-0.4v-0.3c0-0.3-0.1-0.5-0.4-0.4h-0.7
	c-0.7,0.1-1.3-0.3-1.4-1c0-0.1,0-0.3,0-0.4v-6L107.5,4.2z"/>
<path class="st0" d="M115.2,6c0-2.1-1.2-3.1-2.9-3.1c-1.5-0.1-2.9,1-3,2.6c0,0.2,0,0.4,0,0.5v3.7c-0.2,1.5,0.9,2.9,2.5,3.1
	c0.2,0,0.4,0,0.5,0c1.7,0,2.9-1,2.9-3.1V6z M114.1,9.6c0,1.5-0.8,2.1-1.8,2.1s-1.8-0.6-1.8-2.1V6.1c0-1.5,0.8-2.1,1.8-2.1
	s1.8,0.6,1.8,2.1V9.6z"/>
<path class="st0" d="M117.7,12.6h0.4c0.2,0,0.3-0.2,0.3-0.4V5.7c0-1.3,0.6-1.6,1.6-1.6h0.7c0.2,0,0.4-0.2,0.4-0.4V3.4
	c0-0.2-0.2-0.4-0.4-0.4h-0.8c-1.3-0.2-2.4,0.7-2.6,2c0,0.2,0,0.4,0,0.6v6.6C117.3,12.5,117.4,12.6,117.7,12.6z"/>
<path class="st0" d="M123.2,0h-0.3c-0.2,0-0.4,0.2-0.4,0.4v0.9c0,0.2,0.2,0.4,0.4,0.4h0.3c0.2,0,0.4-0.2,0.4-0.4V0.4
	C123.6,0.2,123.4,0,123.2,0z"/>
<path class="st0" d="M123.2,3.1h-0.3c-0.3,0-0.4,0.1-0.4,0.4v8.7c0,0.2,0.2,0.4,0.4,0.4h0.3c0.2,0,0.4-0.2,0.4-0.4V3.5
	C123.6,3.2,123.5,3.1,123.2,3.1z"/>
<path class="st0" d="M128.7,2.9c-1.5-0.1-2.8,1.1-2.9,2.7c0,0.1,0,0.3,0,0.4v3.7c-0.2,1.5,0.9,2.9,2.5,3.1c0.1,0,0.3,0,0.4,0
	c1.5,0.1,2.8-1,2.9-2.5c0-0.1,0-0.2,0-0.3c0-0.3-0.1-0.4-0.4-0.4h-0.4c-0.2,0-0.3,0.1-0.3,0.4c0,0.9-0.8,1.7-1.7,1.7
	c0,0-0.1,0-0.1,0c-0.9,0-1.8-0.6-1.8-2.1V8.1h4.4c0.3,0,0.4-0.1,0.4-0.4V6c0.2-1.5-0.9-2.9-2.5-3.1C129,2.9,128.8,2.9,128.7,2.9z
	 M130.6,7h-3.7V6.1c0-1.5,0.9-2.1,1.8-2.1s1.9,0.6,1.9,2.1V7z"/>
<path class="st0" d="M134.6,5.5L134.6,5.5c0-0.9,0.7-1.6,1.6-1.6s1.6,0.7,1.6,1.6l0,0c0,0.2,0.2,0.3,0.4,0.3h0.4
	c0.2,0,0.4-0.1,0.4-0.3l0,0c0-1.5-1.3-2.8-2.9-2.8s-2.8,1.3-2.8,2.9c0,3.5,4.6,2.2,4.6,4.7l0,0c0,1.1-0.9,1.5-1.8,1.5
	c-0.8,0.1-1.6-0.5-1.7-1.3c0-0.1,0-0.1,0-0.2l0,0c0-0.3-0.1-0.4-0.4-0.4h-0.4c-0.2,0-0.3,0.1-0.3,0.4l0,0c0.1,1.4,1.3,2.6,2.7,2.5
	c0,0,0.1,0,0.1,0c1.4,0.2,2.7-0.9,2.9-2.3c0-0.1,0-0.2,0-0.3C139.1,6.7,134.6,7.9,134.6,5.5z"/>
</svg>
