<?xml version="1.0" encoding="utf-8"?>
<!-- Generator: Adobe Illustrator 25.1.0, SVG Export Plug-In . SVG Version: 6.00 Build 0)  -->
<svg version="1.1" id="afdd4ab7-adff-4ff2-b7e4-c8adc1cbcb81"
	 xmlns="http://www.w3.org/2000/svg" xmlns:xlink="http://www.w3.org/1999/xlink" x="0px" y="0px" viewBox="0 0 139.1 12.9"
	 style="enable-background:new 0 0 139.1 12.9;" xml:space="preserve">
<style type="text/css">
	.st0{fill:#172A88;}
</style>
<path class="st0" d="M3.9,12.7h0.6c0.4,0,0.6-0.3,0.7-0.6L8.4,0.6c0-0.2-0.1-0.4-0.3-0.4H7.6c-0.3,0-0.4,0-0.5,0.3l-2.9,11l-2.8-11
	C1.3,0.2,1.2,0.2,0.9,0.2H0.4C0.1,0.2,0,0.4,0.1,0.6l3.1,11.5C3.3,12.4,3.5,12.7,3.9,12.7z"/>
<path class="st0" d="M10.5,1.8h0.3c0.3,0,0.4-0.1,0.4-0.4V0.5c0-0.2-0.1-0.3-0.4-0.3h-0.3c-0.3,0-0.4,0.1-0.4,0.3v0.9
	C10.1,1.7,10.2,1.8,10.5,1.8z"/>
<path class="st0" d="M10.5,12.7h0.3c0.3,0,0.4-0.1,0.4-0.4V3.6c0-0.2-0.1-0.3-0.4-0.3h-0.3c-0.3,0-0.4,0.1-0.4,0.3v8.7
	C10.1,12.6,10.2,12.7,10.5,12.7z"/>
<path class="st0" d="M14,12.7h0.3c0.3,0,0.4-0.1,0.4-0.4V5.8c0-1.2,0.6-1.6,1.6-1.6H17c0.2,0,0.4-0.2,0.4-0.4V3.5
	c0-0.2-0.2-0.3-0.4-0.4h-0.8c-1.6,0-2.6,0.6-2.6,2.5v6.7C13.6,12.6,13.7,12.7,14,12.7z"/>
<path class="st0" d="M21.4,12.9c1.5,0.1,2.8-1.2,2.9-2.7v-0.1c0-0.2-0.2-0.4-0.4-0.4h-0.4c-0.3,0-0.4,0.1-0.4,0.3
	c0.1,0.9-0.7,1.7-1.6,1.8h-0.1c-1,0-1.8-0.5-1.8-2V6.2c0-1.5,0.8-2.1,1.8-2.1c0.9,0,1.7,0.8,1.7,1.7v0.1c0,0.3,0.1,0.4,0.4,0.4h0.4
	c0.2,0,0.4-0.2,0.4-0.4c0.1-1.5-1.1-2.7-2.6-2.8c-0.1,0-0.2,0-0.3,0c-1.5-0.1-2.9,1-3,2.6c0,0.1,0,0.3,0,0.4v3.7
	c-0.2,1.5,0.9,2.9,2.5,3.1C21,12.9,21.2,12.9,21.4,12.9z"/>
<path class="st0" d="M32.2,12.3V6c0-2-1.1-2.9-2.6-2.9c-0.8-0.1-1.6,0.3-2.1,1V0.4c0-0.2-0.2-0.4-0.4-0.4h-0.4
	c-0.3,0-0.4,0.1-0.4,0.4v11.9c0,0.3,0.1,0.4,0.4,0.4h0.4c0.2,0,0.4-0.2,0.4-0.4V6.2c0-1.5,0.8-2.1,1.8-2.1s1.8,0.6,1.8,2.1v6.1
	c0,0.3,0.1,0.4,0.4,0.4h0.3C32.1,12.7,32.2,12.6,32.2,12.3z"/>
<path class="st0" d="M37.2,12.9c1.5,0.1,2.9-1,3-2.6c0-0.2,0-0.4,0-0.5V6.1c0.1-1.5-1-2.9-2.6-3c-0.1,0-0.3,0-0.4,0
	c-1.5-0.1-2.8,1-2.9,2.5c0,0.2,0,0.4,0,0.5v3.7C34.3,11.9,35.5,12.9,37.2,12.9z M35.4,6.2c0-1.5,0.8-2.1,1.8-2.1S39,4.7,39,6.2v3.6
	c0,1.5-0.8,2-1.8,2s-1.8-0.5-1.8-2V6.2z"/>
<path class="st0" d="M47.1,11.4c0.4,1,1.3,1.6,2.3,1.5c1.3,0.1,2.5-0.8,2.6-2.2c0-0.2,0-0.4,0-0.5V3.6c0-0.2-0.1-0.3-0.4-0.3h-0.3
	c-0.3,0-0.4,0.1-0.4,0.3V10c0,1.3-0.7,1.8-1.6,1.8s-1.6-0.5-1.6-1.8V3.6c0-0.2-0.1-0.3-0.4-0.3h-0.4c-0.2,0-0.3,0.1-0.3,0.3V10
	c0,1.3-0.7,1.8-1.6,1.8s-1.6-0.5-1.6-1.8V3.6c0-0.2-0.1-0.3-0.4-0.3h-0.4c-0.2,0-0.4,0.1-0.4,0.3v6.6c-0.1,1.4,0.9,2.6,2.3,2.7
	c0.1,0,0.2,0,0.3,0C45.8,13,46.7,12.4,47.1,11.4z"/>
<path class="st0" d="M66.8,12.1v-0.3c0-0.3-0.1-0.4-0.4-0.4h-4.5v-11c0-0.2-0.2-0.4-0.4-0.4h-0.4c-0.2,0-0.5,0.2-0.5,0.4v11.7
	c0,0.3,0.2,0.5,0.5,0.5h5.3C66.7,12.6,66.8,12.4,66.8,12.1z"/>
<path class="st0" d="M73.8,9.7V6c0.2-1.5-0.9-2.9-2.5-3.1c-0.2,0-0.4,0-0.5,0c-1.4-0.1-2.7,1-2.8,2.4c0,0.1,0,0.2,0,0.3
	C68,5.9,68.1,6,68.4,6h0.4c0.2,0,0.4-0.1,0.4-0.3c-0.1-0.9,0.6-1.6,1.5-1.7h0.1c1,0,1.8,0.6,1.8,2.1v1h-1.8c-1.7,0-3,0.9-3,2.7V10
	c0,1.5,1.2,2.8,2.8,2.8c0.1,0,0.1,0,0.2,0c1.6,0.1,2.9-1.2,3-2.8C73.8,9.9,73.8,9.8,73.8,9.7z M72.6,9.6c0,1.5-0.8,2.1-1.8,2.1
	c-0.9,0.1-1.7-0.7-1.8-1.6c0-0.1,0-0.1,0-0.2c-0.1-0.9,0.6-1.6,1.5-1.7c0.1,0,0.2,0,0.3,0h1.8V9.6z"/>
<path class="st0" d="M81.7,5.9c0-2-1.1-3-2.6-3c-0.8,0-1.6,0.4-2.1,1.1V0.2c0-0.2-0.2-0.4-0.4-0.4h-0.4c-0.2,0-0.4,0.2-0.4,0.4v9.5
	c-0.2,1.5,0.9,2.9,2.5,3.1c0.2,0,0.4,0,0.5,0c1.7,0,2.9-1,2.9-3.1V5.9z M80.6,9.6c0,1.5-0.8,2.1-1.8,2.1S77,11.1,77,9.6V6.1
	C77,4.6,77.8,4,78.8,4s1.8,0.6,1.8,2.1C80.6,6.1,80.6,9.6,80.6,9.6z"/>
<path class="st0" d="M83.6,9.7c-0.2,1.5,0.9,2.9,2.5,3.1c0.2,0,0.4,0,0.5,0c1.7,0,2.9-1,2.9-3.1V6c0-2.1-1.2-3.1-2.9-3.1
	c-1.5-0.1-2.9,1-3,2.6c0,0.2,0,0.4,0,0.5V9.7z M84.8,6.1c0-1.5,0.8-2.1,1.8-2.1s1.8,0.6,1.8,2.1v3.5c0,1.5-0.8,2.1-1.8,2.1
	s-1.8-0.6-1.8-2.1V6.1z"/>
<path class="st0" d="M92.7,12.2V5.7c0-1.3,0.6-1.6,1.6-1.6H95c0.2,0,0.4-0.2,0.4-0.4V3.4C95.4,3.2,95.2,3,95,3h-0.8
	c-1.3-0.2-2.4,0.7-2.6,2c0,0.2,0,0.4,0,0.6v6.6c0,0.2,0.2,0.4,0.4,0.4h0.3C92.5,12.6,92.7,12.5,92.7,12.2L92.7,12.2z"/>
<path class="st0" d="M99.2,2.9c-1.5-0.1-2.7,1.1-2.8,2.6v0.1c0,0.2,0.2,0.4,0.4,0.4h0.4c0.3,0,0.4-0.1,0.4-0.3
	c-0.1-0.9,0.6-1.6,1.5-1.7h0.1c1,0,1.8,0.6,1.8,2.1v1h-1.8C97.7,7,96.4,8,96.3,9.4c0,0.1,0,0.3,0,0.4V10c-0.1,1.5,1.1,2.7,2.6,2.8
	c0.1,0,0.2,0,0.3,0c1.6,0.1,2.9-1.2,3-2.8c0-0.1,0-0.2,0-0.3V6c0.2-1.5-0.9-2.9-2.5-3.1C99.5,2.9,99.3,2.9,99.2,2.9z M101,9.6
	c0,1.5-0.8,2.1-1.8,2.1c-0.9,0.1-1.7-0.7-1.8-1.6c0-0.1,0-0.1,0-0.2C97.3,9,98,8.3,98.9,8.2c0.1,0,0.2,0,0.3,0h1.8V9.6z"/>
<path class="st0" d="M107.5,4.2c0.3,0,0.4-0.1,0.4-0.4V3.5c0-0.3-0.1-0.4-0.4-0.4h-2.1V1.2c0-0.3-0.1-0.4-0.4-0.4h-0.3
	c-0.3,0-0.4,0.1-0.4,0.4v9c0,1.8,0.9,2.4,2.4,2.4h0.8c0.3-0.1,0.4-0.2,0.4-0.4v-0.3c0-0.3-0.1-0.5-0.4-0.4h-0.7
	c-0.7,0.1-1.3-0.3-1.4-1c0-0.1,0-0.3,0-0.4v-6L107.5,4.2z"/>
<path class="st0" d="M115.2,6c0-2.1-1.2-3.1-2.9-3.1c-1.5-0.1-2.9,1-3,2.6c0,0.2,0,0.4,0,0.5v3.7c-0.2,1.5,0.9,2.9,2.5,3.1
	c0.2,0,0.4,0,0.5,0c1.7,0,2.9-1,2.9-3.1V6z M114.1,9.6c0,1.5-0.8,2.1-1.8,2.1s-1.8-0.6-1.8-2.1V6.1c0-1.5,0.8-2.1,1.8-2.1
	s1.8,0.6,1.8,2.1V9.6z"/>
<path class="st0" d="M117.7,12.6h0.4c0.2,0,0.3-0.2,0.3-0.4V5.7c0-1.3,0.6-1.6,1.6-1.6h0.7c0.2,0,0.4-0.2,0.4-0.4V3.4
	c0-0.2-0.2-0.4-0.4-0.4h-0.8c-1.3-0.2-2.4,0.7-2.6,2c0,0.2,0,0.4,0,0.6v6.6C117.3,12.5,117.4,12.6,117.7,12.6z"/>
<path class="st0" d="M123.2,0h-0.3c-0.2,0-0.4,0.2-0.4,0.4v0.9c0,0.2,0.2,0.4,0.4,0.4h0.3c0.2,0,0.4-0.2,0.4-0.4V0.4
	C123.6,0.2,123.4,0,123.2,0z"/>
<path class="st0" d="M123.2,3.1h-0.3c-0.3,0-0.4,0.1-0.4,0.4v8.7c0,0.2,0.2,0.4,0.4,0.4h0.3c0.2,0,0.4-0.2,0.4-0.4V3.5
	C123.6,3.2,123.5,3.1,123.2,3.1z"/>
<path class="st0" d="M128.7,2.9c-1.5-0.1-2.8,1.1-2.9,2.7c0,0.1,0,0.3,0,0.4v3.7c-0.2,1.5,0.9,2.9,2.5,3.1c0.1,0,0.3,0,0.4,0
	c1.5,0.1,2.8-1,2.9-2.5c0-0.1,0-0.2,0-0.3c0-0.3-0.1-0.4-0.4-0.4h-0.4c-0.2,0-0.3,0.1-0.3,0.4c0,0.9-0.8,1.7-1.7,1.7h-0.1
	c-0.9,0-1.8-0.6-1.8-2.1V8.1h4.4c0.3,0,0.4-0.1,0.4-0.4V6c0.2-1.5-0.9-2.9-2.5-3.1C129,2.9,128.8,2.9,128.7,2.9z M130.6,7h-3.7V6.1
	c0-1.5,0.9-2.1,1.8-2.1c0.9,0,1.9,0.6,1.9,2.1V7z"/>
<path class="st0" d="M134.6,5.5L134.6,5.5c0-0.9,0.7-1.6,1.6-1.6s1.6,0.7,1.6,1.6l0,0c0,0.2,0.2,0.3,0.4,0.3h0.4
	c0.2,0,0.4-0.1,0.4-0.3l0,0c0-1.5-1.3-2.8-2.9-2.8s-2.8,1.3-2.8,2.9c0,3.5,4.6,2.2,4.6,4.7l0,0c0,1.1-0.9,1.5-1.8,1.5
	c-0.8,0.1-1.6-0.5-1.7-1.3c0-0.1,0-0.1,0-0.2l0,0c0-0.3-0.1-0.4-0.4-0.4h-0.4c-0.2,0-0.3,0.1-0.3,0.4l0,0c0.1,1.4,1.3,2.6,2.7,2.5
	h0.1c1.4,0.2,2.7-0.9,2.9-2.3c0-0.1,0-0.2,0-0.3C139.1,6.7,134.6,7.9,134.6,5.5z"/>
</svg>
